<svg xmlns="http://www.w3.org/2000/svg" viewBox="0 0 510 500" style="filter:drop-shadow(0 0 5px rgb(0 0 0/.9))"><path d="m252.826 26.066-78.098 21.26v4.97c0 5.405-16.513 15.084-31.333 20.388l-4.92 1.765-.006 4.521v111.497c0 38.519 19.687 74.534 56.924 104.149 27.842 22.144 55.41 32.853 56.572 33.3l3.326 1.278 3.326-1.276c1.159-.443 28.724-11.155 56.572-33.3 37.237-29.614 56.92-65.632 56.92-104.148V74.456l-4.926-1.769c-14.822-5.307-31.332-14.986-31.332-20.387v-4.974l-80.56-21.93z" fill="#0d0842"/><path d="m252.933 32.217-74.715 20.339v4.754c0 5.17-15.797 14.43-29.974 19.505l-4.707 1.688-.006 4.325v106.664c0 36.85 18.833 71.304 54.457 99.634 26.636 21.184 53.01 31.43 54.121 31.856l3.182 1.224 3.181-1.22c1.11-.425 27.48-10.673 54.122-31.857 35.624-28.33 54.454-62.788 54.454-99.634V78.51l-4.713-1.692c-14.18-5.077-29.974-14.336-29.974-19.504v-4.757l-77.07-20.981-2.358.642z" fill="#15a1d4"/><path d="M253.118 42.647 185.354 61.52v4.412c0 4.798-14.328 13.39-27.187 18.098l-4.269 1.567-.005 4.013v98.975c0 34.192 17.081 66.163 49.391 92.45 24.158 19.658 48.079 29.164 49.087 29.56l2.886 1.136 2.885-1.133c1.006-.394 24.924-9.903 49.087-29.56 32.31-26.288 49.39-58.26 49.39-92.45V85.601l-4.275-1.57c-12.861-4.711-27.187-13.303-27.187-18.098v-4.415l-69.9-19.468-2.139.596z" fill="#0d0842"/><path d="M354.649 164.09c-.59-10.63-14.98-18.295-22.6-11.97-8.472 7.032-1.799 14.292 1.603 13.867 3.403-.425 3.094-2.894 3.094-2.894s-2.57 1.293-3.78-.377-.23-5.626 4.71-5.82c4.939-.198 8.95 5.454 5.268 12.493-3.63 6.934-14.882 7.653-20.311 7.653s-13.572-.916-14.096-10.858c-.523-9.942 11.088-12.036 16.942-14.945 5.853-2.912 12.638-6.365 13.114-18.642.359-9.289-6.689-15.648-13.85-15.552-7.162.099-10.941 2.763-11.496 8.619-.556 5.853 5.872 7.799 5.872 7.799l-1.063-2.077c-1.062-2.077-.817-5.788 2.715-6.524 3.531-.736 6.132 1.03 6.82 4.072.687 3.041-.049 12.166-18.103 12.952-17.509.76-18.398-17.7-18.435-18.816 6.38-14.42 16.34-31.552 11.105-48.688-8.64-28.26-30.351-33.754-46.05-33.754-15.7 0-37.41 5.495-46.046 33.751-5.506 18.02 5.794 36.037 12.06 50.897l-1.003-2.263s-.336 19.655-18.39 18.871-18.79-9.909-18.102-12.952c.688-3.04 3.286-4.809 6.82-4.073 3.531.737 3.776 4.448 2.714 6.525l-1.063 2.076s6.426-1.945 5.872-7.799c-.557-5.853-4.334-8.52-11.495-8.618-7.162-.099-14.212 6.263-13.85 15.552.475 12.28 7.26 15.732 13.114 18.642 5.853 2.911 17.464 5.003 16.94 14.945-.523 9.942-8.666 10.858-14.095 10.858-5.428 0-16.68-.719-20.31-7.653-3.685-7.037.326-12.689 5.266-12.494 4.938.197 5.92 4.154 4.71 5.821-1.209 1.667-3.007-.197-3.007-.197s-1.08 3.04 2.322 3.466 10.073-6.836 1.603-13.868c-7.62-6.325-22.01 1.34-22.6 11.97-.648 11.719 7.556 26.132 22.633 28.257s25.674-5.527 30.513-1.047c4.84 4.48 7.228 17.268-.784 21.586-6.89 3.71-15.894 1.864-16.941-3.86-1.047-5.725 3.696-7.033 5.593-4.971 1.897 2.059-1.275 3.893-1.275 3.893s4.97 1.014 5.363-3.828c.416-5.122-4.351-8.406-11.48-6.083-8.036 2.618-14.424 15.37-.981 25.51s27.406 6.606 34.112 1.57c6.702-5.03 13.848-24.78 31.786-24.78 16.933 0 25.085 19.752 31.79 24.789 6.705 5.036 20.67 8.568 34.114-1.571s7.054-22.894-.982-25.51c-7.129-2.322-11.896.962-11.48 6.084.393 4.84 5.363 3.827 5.363 3.827s-3.172-1.831-1.275-3.893c1.898-2.061 6.64-.751 5.593 4.971-1.047 5.725-10.05 7.572-16.94 3.86-8.015-4.318-5.627-17.105-.785-21.585 4.84-4.48 15.436 3.172 30.513 1.047 15.077-2.13 23.28-16.54 22.63-28.261zM220.674 74.907c-.583 1.322-1.1 2.811-1.104 3.19a1.185 1.185 0 0 1-1.179 1.172h-.007a1.173 1.173 0 0 1-1.172-1.172c0-1.106 1-3.45 1.306-4.143.263-.595.96-.865 1.553-.6.596.26.866.958.603 1.553zm10.242 102.595c-.406.158-.84.236-1.286.236-3.615 0-7.232-5.144-9.21-10.242-2.36-6.079-2.778-13 .994-14.465.406-.158.84-.237 1.286-.237 3.615 0 7.23 5.144 9.21 10.242 2.36 6.08 2.776 13.002-.994 14.466zm13.296-125.88c-.15.043-15.003 4.644-21.746 18.604a1.18 1.18 0 0 1-2.123-1.026c7.205-14.919 22.543-19.642 23.192-19.837a1.178 1.178 0 0 1 .677 2.259zm42.087 13.4a4.19 4.19 0 0 1 4.186 4.187 4.19 4.19 0 0 1-4.186 4.187 4.19 4.19 0 0 1-4.187-4.187 4.19 4.19 0 0 1 4.187-4.186zm-11.563-4.891a2.406 2.406 0 0 1 2.403 2.403 2.406 2.406 0 0 1-2.403 2.403 2.406 2.406 0 0 1-2.404-2.403 2.407 2.407 0 0 1 2.404-2.403zm-7.85 25.595c0-5.434 4.421-9.855 9.854-9.855s9.854 4.421 9.854 9.855-4.42 9.854-9.854 9.854c-5.433-.003-9.854-4.421-9.854-9.854zm25 81.77c-1.98 5.098-5.596 10.242-9.21 10.242-.448 0-.88-.078-1.287-.236-3.77-1.466-3.354-8.387-.995-14.466 1.979-5.098 5.596-10.242 9.21-10.242.447 0 .881.081 1.287.237 3.77 1.465 3.354 8.386.994 14.465z" fill="#15a1d4"/><path d="M264.972 86.705a11.51 11.51 0 1 0 23.02 0 11.51 11.51 0 1 0-23.02 0m16.907-17.191a5.306 5.306 0 1 0 10.611 0 5.306 5.306 0 1 0-10.611 0m-12.199-8.128a4.123 4.123 0 1 0 8.246 0 4.123 4.123 0 1 0-8.246 0M191.209 270.04a66.114 66.114 0 1 0 132.229 0 66.114 66.114 0 1 0-132.23 0" fill="#fff"/><path d="M303.468 221.827c-12.878-12.878-30-19.97-48.212-19.97s-35.335 7.092-48.213 19.97c-12.877 12.878-19.97 30.001-19.97 48.213s7.093 35.334 19.97 48.212c12.878 12.878 30 19.97 48.213 19.97s35.334-7.092 48.212-19.97c12.877-12.878 19.97-30 19.97-48.212s-7.092-35.335-19.97-48.213zm-46.527 3.183 19.92-5.816 19.962 14.555.622 20.676-19.715 8.675-20.789-15.104zm-25.712 41.138 7.833 24.105-12.927 13.687-20.026-9.495-5.371-20.69 11.023-16.173zm-18.203-11.457.643-21.384 19.909-14.134 20.207 5.9v22.768l-21.245 15.435zm27.374 38.742h30.017l.188-.58 12.374 13.103-10.236 16.33h-34.762l-9.906-15.803zm44.761 10.236-13.444-14.236 7.673-23.615 19.188-8.443 11.393 16.717-5.712 20.522zm23.111-69.014-10.214-3.912-20.081-14.643-6.18-7.642c15.094 4.057 27.992 13.529 36.475 26.197zm-69.557-26.198-6.068 7.505-21.513 15.273-8.884 3.403c8.483-12.66 21.377-22.124 36.465-26.181zm-47.1 57.694 6.469 9.945 5.298 20.407-.465 9.911a63.4 63.4 0 0 1-11.302-40.263zm36.533 61.593 11.812-2.301h30.805l11.661 2.272a63.382 63.382 0 0 1-27.17 6.088 63.377 63.377 0 0 1-27.108-6.059zm79.646-21.617-.5-10.648 5.616-20.175 5.984-9.198a63.399 63.399 0 0 1-11.1 40.02z" fill="#0d0842"/><path fill="#0d0842" text-anchor="middle" font-size="100" letter-spacing="0" font-family="Holtwood One SC" d="M67.353 359.32h31.981q3.914 1.197 5.83 3.927 1.922 2.737 1.922 7.36 0 3.078-.522 5.17-.517 2.093-1.313 3.458-.791 1.371-1.719 2.105-.928.74-1.719 1.089-.796.347-1.348.405-.558.065-.583.065.963.064 2.063.283 1.105.219 2.195.689 1.085.476 2.08 1.23.988.753 1.743 1.867.756 1.12 1.202 2.659.446 1.539.446 3.554 0 3.078-.608 5.718-.609 2.646-2.13 4.578-1.52 1.931-4.147 3.032-2.621 1.101-6.632 1.101H67.353v-13.643l3.169-.786v-20.59l-3.17-.793V359.32zm26.414 15.466q0-1.604-.436-2.466-.43-.863-1.15-1.275-.715-.406-1.633-.47-.918-.065-1.856-.065h-2.327v9.028h2.327q.938 0 1.856-.084.918-.077 1.632-.515.72-.438 1.151-1.398.436-.959.436-2.755zm0 15.691q0-1.603-.436-2.453-.43-.85-1.15-1.256-.715-.412-1.633-.476-.918-.058-1.856-.058h-2.327v9.02h2.327q.938 0 1.856-.077.918-.077 1.632-.521.72-.438 1.151-1.41.436-.98.436-2.769zm58.073 9.87v7.263h-14.8q-.694-1.635-1.439-3.476-.74-1.835-1.435-3.85-.694-2.01-1.298-4.147-.608-2.138-1.029-4.404h-.816v15.877H113.15v-12.542l2.971-.728v-17.887l-2.97-.72v-12.389h20.274q4.036 0 6.966.438 2.936.444 4.979 1.294 2.038.844 3.3 2.054 1.263 1.21 1.973 2.737.704 1.525.953 3.348.243 1.822.243 3.87 0 2.073-.31 3.772-.308 1.694-1.1 3.11-.79 1.417-2.164 2.595-1.374 1.178-3.504 2.215.447 1.133 1.324 2.692.882 1.551 1.921 3.174 1.04 1.616 2.064 3.13 1.029 1.506 1.77 2.575zm-20.817-28.575v11.442q1.364 0 2.464-.174 1.1-.174 1.88-.753.782-.58 1.202-1.713.421-1.133.421-3.052 0-1.886-.42-3.02-.421-1.126-1.202-1.744-.781-.612-1.881-.799-1.1-.187-2.464-.187zm42.851 4.211v6.819l6.86-1.854v8.962l-6.86-1.886v6.947q1.486 0 2.875-.264 1.384-.27 2.57-.74 1.192-.47 2.18-1.101.989-.631 1.709-1.352h3.392v16.096h-30.597v-12.542l2.97-.728v-17.822l-2.97-.721v-12.453H186.6v16.097h-3.392q-.72-.689-1.709-1.32-.988-.631-2.18-1.101-1.186-.47-2.57-.753-1.39-.284-2.875-.284zm42.038 25.936-7.504-15.968v21.66h-17.846v-12.543l2.971-.728v-17.887l-2.971-.72v-12.389h17.846l7.504 16.915 7.422-16.915h17.851v12.388l-2.97.721v17.887l2.97.728v12.542h-17.85v-21.66l-7.423 15.969zm47.924-25.936v6.819l6.86-1.854v8.962l-6.86-1.886v6.947q1.485 0 2.875-.264 1.384-.27 2.57-.74 1.192-.47 2.18-1.101.989-.631 1.709-1.352h3.392v16.096h-30.598v-12.542l2.971-.728v-17.822l-2.97-.721v-12.453h30.597v16.097h-3.392q-.72-.689-1.709-1.32-.988-.631-2.18-1.101-1.186-.47-2.57-.753-1.39-.284-2.875-.284zm55.377 24.365v7.262h-14.8q-.694-1.635-1.44-3.476-.74-1.835-1.434-3.85-.695-2.01-1.298-4.147-.609-2.138-1.03-4.404h-.816v15.877h-17.871v-12.542l2.97-.728v-17.887l-2.97-.72v-12.389h20.275q4.035 0 6.966.438 2.935.444 4.978 1.294 2.038.844 3.3 2.054 1.263 1.21 1.973 2.737.705 1.525.953 3.348.244 1.822.244 3.87 0 2.073-.31 3.772-.309 1.694-1.1 3.11-.79 1.417-2.165 2.595-1.374 1.178-3.503 2.215.446 1.133 1.323 2.692.882 1.551 1.922 3.174 1.039 1.616 2.063 3.13 1.03 1.506 1.77 2.575zm-20.818-28.576v11.442q1.364 0 2.464-.174 1.1-.174 1.881-.753.781-.58 1.202-1.713.42-1.133.42-3.052 0-1.886-.42-3.02-.42-1.126-1.202-1.744-.78-.612-1.88-.799-1.1-.187-2.465-.187zm33.026 22.568v-19.303q-1.288 0-2.281.444-.989.438-1.658 1.101-.67.657-1.014 1.43-.345.766-.345 1.429h-4.137v-16.097h33.766v16.097h-4.132q0-.663-.345-1.43-.35-.772-1.019-1.429-.664-.663-1.658-1.1-.989-.445-2.276-.445v19.303l2.97.728v12.542H328.45v-12.542l2.971-.728zm47.626 13.837q-4.355 0-8.152-1.178-3.803-1.178-6.612-4.057-2.808-2.878-4.43-7.34-1.623-4.468-1.623-10.72 0-6.13 1.622-10.457 1.623-4.32 4.442-7.044 2.824-2.717 6.61-3.973 3.788-1.262 8.143-1.262 4.335 0 8.132 1.262 3.803 1.256 6.637 3.973 2.834 2.724 4.466 7.044 1.638 4.327 1.638 10.457 0 4.146-.745 7.527-.74 3.38-2.09 6.007-1.353 2.62-3.244 4.526-1.896 1.9-4.223 3.142-2.327 1.243-4.999 1.668-2.672.425-5.572.425zm0-32.632q-1.46 0-2.459.47-1.004.47-1.663 1.224-.654.753-1.024 1.732-.37.972-.532 1.996-.162 1.024-.198 2.009-.04.991-.04 1.745 0 .727.025 1.712.025.992.172 2.08.152 1.082.497 2.15.35 1.07 1.004 1.92.654.85 1.683 1.364 1.03.522 2.535.522 1.486 0 2.515-.502 1.029-.502 1.683-1.34.654-.83 1.03-1.867.37-1.036.532-2.092.157-1.05.197-2.06.036-1.005.036-1.726 0-.754-.036-1.745-.04-.992-.197-2.028-.163-1.037-.533-2.029-.375-.991-1.029-1.777-.654-.785-1.683-1.275-1.03-.483-2.515-.483zm48.202 32.065-11.91-23.23v9.96l2.997.696v12.574h-14.9v-12.542l2.97-.728v-17.887l-2.97-.72v-12.389h17.87l11.91 23.862v-10.688l-2.97-.786v-12.388h14.874v12.388l-2.97.721v17.887l2.97.728v12.542H427.25z"/><path text-anchor="middle" font-size="100" letter-spacing="0" font-family="Holtwood One SC" fill="#15a1d4" d="M47.122 448.277q-.025 3.116-.705 5.518-.684 2.408-1.896 4.153-1.211 1.744-2.844 2.955-1.638 1.21-3.518 1.95-1.881.735-3.95.941-2.063.206-4.142.206-3.767 0-6.611-.38-1.633-.251-4.878-1.384-2.651-.908-4.157-1.913v-12.42h7.448q1.288 2.26 2.91 3.329 1.622 1.069 3.33 1.069.447 0 .99-.09.547-.097 1.029-.535.481-.444.816-1.384.335-.947.335-2.64-2.13-.251-4.224-.721-2.088-.477-3.995-1.294-1.906-.818-3.554-2.054-1.648-1.243-2.844-3.007-1.202-1.758-1.886-4.134-.68-2.376-.68-5.486 0-3.335.695-5.865.695-2.53 1.891-4.366 1.202-1.841 2.824-3.052 1.623-1.21 3.493-1.931 1.866-.728 3.884-.915 2.018-.186 4.026-.186 2.92 0 5.257.263 2.342.27 4.223.838 1.881.566 3.326 1.274 1.45.702 2.59 1.365v12.26h-7.452q-1.262-2.26-2.809-3.329-1.546-1.069-3.184-1.069-.446 0-1.014.142-.567.141-1.064.657-.492.521-.842 1.513-.345.985-.345 2.685 4.33.186 7.626 1.197 3.29 1.005 5.48 3.033 2.19 2.028 3.306 5.183 1.115 3.161 1.115 7.624zm4.309-16.722v-12.388h20.274q3.96 0 6.87.438 2.905.444 4.948 1.262 2.044.818 3.341 2.009 1.303 1.197 2.034 2.691.73 1.494.988 3.265.259 1.777.259 3.792 0 2.073-.31 3.895-.309 1.829-1.15 3.349-.842 1.526-2.312 2.736-1.476 1.21-3.788 2.048-2.317.83-5.582 1.268-3.27.444-7.7.444v3.8l2.97.727v12.542H51.431v-12.542l2.97-.728v-17.887l-2.97-.72zm17.871-4.842v11.693q1.364 0 2.464-.187 1.1-.187 1.881-.817.78-.631 1.202-1.823.42-1.197.42-3.238 0-1.887-.42-2.988-.421-1.101-1.202-1.7-.78-.592-1.88-.766-1.101-.174-2.465-.174zM113.167 464q-4.355 0-8.152-1.178-3.803-1.179-6.612-4.057-2.808-2.878-4.43-7.34-1.623-4.468-1.623-10.72 0-6.13 1.622-10.457 1.623-4.32 4.442-7.044 2.824-2.717 6.61-3.973 3.788-1.262 8.143-1.262 4.335 0 8.132 1.262 3.803 1.256 6.637 3.973 2.834 2.724 4.466 7.044 1.638 4.327 1.638 10.457 0 4.146-.745 7.526-.74 3.38-2.089 6.008-1.354 2.62-3.245 4.526-1.896 1.9-4.223 3.142-2.327 1.243-4.999 1.668-2.672.425-5.572.425zm0-32.632q-1.46 0-2.459.47-1.004.47-1.663 1.224-.654.753-1.024 1.732-.37.972-.532 1.996-.162 1.024-.198 2.009-.04.991-.04 1.745 0 .727.025 1.712.025.992.172 2.08.152 1.082.497 2.15.35 1.07 1.004 1.92.654.85 1.683 1.364 1.03.522 2.535.522 1.486 0 2.515-.502 1.029-.503 1.683-1.34.654-.83 1.03-1.867.37-1.036.532-2.092.157-1.05.197-2.06.036-1.005.036-1.726 0-.754-.036-1.745-.04-.992-.197-2.029-.163-1.036-.533-2.028-.375-.991-1.029-1.777-.654-.785-1.683-1.275-1.03-.483-2.515-.483zm63.077 24.802v7.263h-14.8q-.694-1.635-1.439-3.477-.74-1.835-1.435-3.85-.694-2.009-1.298-4.146-.608-2.138-1.029-4.405h-.816v15.878h-17.872v-12.542l2.971-.728v-17.887l-2.97-.72v-12.389h20.274q4.036 0 6.966.438 2.936.444 4.979 1.294 2.038.843 3.3 2.054 1.263 1.21 1.973 2.736.704 1.526.953 3.349.243 1.822.243 3.87 0 2.073-.31 3.772-.308 1.694-1.1 3.11-.79 1.417-2.164 2.595-1.374 1.178-3.504 2.215.447 1.133 1.324 2.691.882 1.552 1.921 3.175 1.04 1.616 2.064 3.129 1.029 1.507 1.77 2.575zm-20.817-28.575v11.442q1.364 0 2.464-.174 1.1-.174 1.88-.753.782-.58 1.202-1.713.421-1.133.421-3.052 0-1.886-.42-3.02-.421-1.126-1.202-1.745-.781-.611-1.881-.798-1.1-.187-2.464-.187zm33.026 22.568V430.86q-1.288 0-2.282.444-.988.438-1.658 1.101-.669.657-1.014 1.43-.344.766-.344 1.429h-4.138v-16.097h33.766v16.097h-4.132q0-.663-.344-1.43-.35-.772-1.02-1.429-.664-.663-1.657-1.101-.989-.444-2.277-.444v19.303l2.971.728v12.542h-20.842v-12.542l2.97-.728zm58.05-.657q0 2.924-.655 5.17-.659 2.248-1.784 3.903-1.126 1.648-2.672 2.749-1.546 1.1-3.331 1.777-1.785.676-3.726.786-1.942.109-3.874.109-2.672 0-4.826-.161-2.155-.155-3.849-.689-1.698-.534-2.996-1.178-1.303-.644-2.292-1.275V449.79h7.007q1.04 2.073 2.378 3.045 1.333.979 2.748.979.42 0 .938-.097.522-.09.968-.599.446-.502.756-1.551.309-1.056.309-2.975-2.008-.219-3.975-.644-1.967-.425-3.762-1.146-1.795-.721-3.33-1.841-1.537-1.114-2.663-2.705-1.125-1.584-1.769-3.74-.644-2.151-.644-4.952 0-3.206.644-5.608.644-2.408 1.76-4.134 1.11-1.732 2.636-2.865 1.52-1.127 3.28-1.79 1.754-.663 3.66-.927 1.907-.27 3.813-.27 2.697 0 4.842.347 2.14.348 3.838.882 1.693.535 2.996 1.178 1.298.644 2.312 1.243v11.004h-7.498q-.943-2.266-2.155-3.303-1.212-1.037-2.48-1.037-.42 0-.963.174-.542.174-1.014.766-.471.6-.79 1.765-.325 1.165-.325 3.142 4.086.193 7.169 1.1 3.082.915 5.161 2.718 2.079 1.81 3.118 4.655 1.04 2.846 1.04 6.902zm34.557-10.785q0 2.705.548 4.656.542 1.944 1.597 3.206 1.05 1.256 2.57 1.855 1.526.598 3.478.598 2.327 0 5.496-.727 3.169-.721 7.007-2.228v14.712q-3.985 1.7-7.757 2.454-3.777.753-7.443.753-4.482 0-8.38-1.417-3.9-1.416-6.78-4.571-2.884-3.161-4.542-7.971-1.663-4.81-1.663-11.32 0-6.348 1.526-10.939 1.521-4.59 4.305-7.56 2.788-2.974 6.687-4.39 3.899-1.41 8.65-1.41 2.92 0 5.262.373 2.337.38 4.218.947 1.881.566 3.331 1.274 1.45.702 2.586 1.365v14.462h-7.448q-1.262-2.267-2.814-3.335-1.546-1.07-3.179-1.07-1.389 0-2.687.696-1.298.69-2.312 2.009-1.019 1.32-1.637 3.226-.619 1.9-.619 4.352zm43.274-6.915v6.819l6.86-1.854v8.962l-6.86-1.886v6.947q1.485 0 2.874-.264 1.384-.27 2.57-.74 1.192-.47 2.18-1.101.99-.631 1.71-1.353h3.391v16.097h-30.597v-12.542l2.971-.728v-17.822l-2.97-.721v-12.453h30.596v16.097h-3.392q-.72-.69-1.708-1.32-.989-.631-2.18-1.101-1.187-.47-2.57-.753-1.39-.284-2.875-.284zm40.501 31.627-11.91-23.23v9.96l2.997.695v12.575h-14.9v-12.542l2.97-.728v-17.887l-2.97-.72v-12.389h17.871l11.91 23.862v-10.688l-2.972-.786v-12.388h14.876v12.388l-2.971.721v17.887l2.97.728v12.542h-17.871zm30.698-13.27V430.86q-1.288 0-2.281.444-.989.438-1.658 1.101-.67.657-1.014 1.43-.345.766-.345 1.429h-4.137v-16.097h33.766v16.097h-4.132q0-.663-.345-1.43-.35-.772-1.02-1.429-.663-.663-1.657-1.101-.989-.444-2.276-.444v19.303l2.97.728v12.542h-20.842v-12.542l2.971-.728zm45.573-18.357v6.819l6.86-1.854v8.962l-6.86-1.886v6.947q1.485 0 2.874-.264 1.384-.27 2.57-.74 1.192-.47 2.18-1.101.99-.631 1.71-1.353h3.391v16.097h-30.597v-12.542l2.971-.728v-17.822l-2.97-.721v-12.453h30.596v16.097h-3.392q-.72-.69-1.708-1.32-.989-.631-2.18-1.101-1.187-.47-2.57-.753-1.39-.284-2.875-.284zm55.376 24.364v7.263h-14.799q-.694-1.635-1.44-3.477-.74-1.835-1.435-3.85-.694-2.009-1.297-4.146-.609-2.138-1.03-4.405h-.816v15.878h-17.871v-12.542l2.97-.728v-17.887l-2.97-.72v-12.389h20.274q4.036 0 6.966.438 2.936.444 4.98 1.294 2.037.843 3.3 2.054 1.262 1.21 1.972 2.736.705 1.526.953 3.349.243 1.822.243 3.87 0 2.073-.309 3.772-.31 1.694-1.1 3.11-.791 1.417-2.165 2.595-1.374 1.178-3.503 2.215.446 1.133 1.323 2.691.882 1.552 1.921 3.175 1.04 1.616 2.064 3.129 1.03 1.507 1.77 2.575zm-20.817-28.575v11.442q1.364 0 2.464-.174 1.1-.174 1.881-.753.78-.58 1.202-1.713.42-1.133.42-3.052 0-1.886-.42-3.02-.421-1.126-1.202-1.745-.78-.611-1.88-.798-1.101-.187-2.465-.187z"/></svg>