<svg viewBox="138.47 25.4 233.64 312.83" xmlns="http://www.w3.org/2000/svg"><path d="m252.826 26.066-78.098 21.26v4.97c0 5.405-16.513 15.084-31.333 20.388l-4.92 1.765-.006 4.521v111.497c0 38.519 19.687 74.534 56.924 104.149 27.842 22.144 55.41 32.853 56.572 33.3l3.326 1.278 3.326-1.276c1.159-.443 28.724-11.155 56.572-33.3 37.237-29.614 56.92-65.632 56.92-104.148v-116.014l-4.926-1.769c-14.822-5.307-31.332-14.986-31.332-20.387v-4.974l-80.56-21.93z" fill="#292929"/><path d="m252.933 32.217-74.715 20.339v4.754c0 5.17-15.797 14.43-29.974 19.505l-4.707 1.688-.006 4.325v106.664c0 36.85 18.833 71.304 54.457 99.634 26.636 21.184 53.01 31.43 54.121 31.856l3.182 1.224 3.181-1.22c1.11-.425 27.48-10.673 54.122-31.857 35.624-28.33 54.454-62.788 54.454-99.634v-110.985l-4.713-1.692c-14.18-5.077-29.974-14.336-29.974-19.504v-4.757l-77.07-20.981-2.358.642z" fill="#15a1d4"/><path d="m253.118 42.647-67.764 18.873v4.412c0 4.798-14.328 13.39-27.187 18.098l-4.269 1.567-.005 4.013v98.975c0 34.192 17.081 66.163 49.391 92.45 24.158 19.658 48.079 29.164 49.087 29.56l2.886 1.136 2.885-1.133c1.006-.394 24.924-9.903 49.087-29.56 32.31-26.288 49.39-58.26 49.39-92.45v-102.987l-4.275-1.57c-12.861-4.711-27.187-13.303-27.187-18.098v-4.415l-69.9-19.468-2.139.596z" fill="#292929"/><path d="m354.649 164.09c-.59-10.63-14.98-18.295-22.6-11.97-8.472 7.032-1.799 14.292 1.603 13.867 3.403-.425 3.094-2.894 3.094-2.894s-2.57 1.293-3.78-.377-.23-5.626 4.71-5.82c4.939-.198 8.95 5.454 5.268 12.493-3.63 6.934-14.882 7.653-20.311 7.653s-13.572-.916-14.096-10.858c-.523-9.942 11.088-12.036 16.942-14.945 5.853-2.912 12.638-6.365 13.114-18.642.359-9.289-6.689-15.648-13.85-15.552-7.162.099-10.941 2.763-11.496 8.619-.556 5.853 5.872 7.799 5.872 7.799l-1.063-2.077c-1.062-2.077-.817-5.788 2.715-6.524 3.531-.736 6.132 1.03 6.82 4.072.687 3.041-.049 12.166-18.103 12.952-17.509.76-18.398-17.7-18.435-18.816 6.38-14.42 16.34-31.552 11.105-48.688-8.64-28.26-30.351-33.754-46.05-33.754-15.7 0-37.41 5.495-46.046 33.751-5.506 18.02 5.794 36.037 12.06 50.897l-1.003-2.263s-.336 19.655-18.39 18.871-18.79-9.909-18.102-12.952c.688-3.04 3.286-4.809 6.82-4.073 3.531.737 3.776 4.448 2.714 6.525l-1.063 2.076s6.426-1.945 5.872-7.799c-.557-5.853-4.334-8.52-11.495-8.618-7.162-.099-14.212 6.263-13.85 15.552.475 12.28 7.26 15.732 13.114 18.642 5.853 2.911 17.464 5.003 16.94 14.945-.523 9.942-8.666 10.858-14.095 10.858-5.428 0-16.68-.719-20.31-7.653-3.685-7.037.326-12.689 5.266-12.494 4.938.197 5.92 4.154 4.71 5.821-1.209 1.667-3.007-.197-3.007-.197s-1.08 3.04 2.322 3.466 10.073-6.836 1.603-13.868c-7.62-6.325-22.01 1.34-22.6 11.97-.648 11.719 7.556 26.132 22.633 28.257s25.674-5.527 30.513-1.047c4.84 4.48 7.228 17.268-.784 21.586-6.89 3.71-15.894 1.864-16.941-3.86-1.047-5.725 3.696-7.033 5.593-4.971 1.897 2.059-1.275 3.893-1.275 3.893s4.97 1.014 5.363-3.828c.416-5.122-4.351-8.406-11.48-6.083-8.036 2.618-14.424 15.37-.981 25.51s27.406 6.606 34.112 1.57c6.702-5.03 13.848-24.78 31.786-24.78 16.933 0 25.085 19.752 31.79 24.789 6.705 5.036 20.67 8.568 34.114-1.571s7.054-22.894-.982-25.51c-7.129-2.322-11.896.962-11.48 6.084.393 4.84 5.363 3.827 5.363 3.827s-3.172-1.831-1.275-3.893c1.898-2.061 6.64-.751 5.593 4.971-1.047 5.725-10.05 7.572-16.94 3.86-8.015-4.318-5.627-17.105-.785-21.585 4.84-4.48 15.436 3.172 30.513 1.047 15.077-2.13 23.28-16.54 22.63-28.261zm-133.975-89.183c-.583 1.322-1.1 2.811-1.104 3.19a1.185 1.185 0 0 1 -1.179 1.172h-.007a1.173 1.173 0 0 1 -1.172-1.172c0-1.106 1-3.45 1.306-4.143.263-.595.96-.865 1.553-.6.596.26.866.958.603 1.553zm10.242 102.595c-.406.158-.84.236-1.286.236-3.615 0-7.232-5.144-9.21-10.242-2.36-6.079-2.778-13 .994-14.465.406-.158.84-.237 1.286-.237 3.615 0 7.23 5.144 9.21 10.242 2.36 6.08 2.776 13.002-.994 14.466zm13.296-125.88c-.15.043-15.003 4.644-21.746 18.604a1.18 1.18 0 0 1 -2.123-1.026c7.205-14.919 22.543-19.642 23.192-19.837a1.178 1.178 0 0 1 .677 2.259zm42.087 13.4a4.19 4.19 0 0 1 4.186 4.187 4.19 4.19 0 0 1 -4.186 4.187 4.19 4.19 0 0 1 -4.187-4.187 4.19 4.19 0 0 1 4.187-4.186zm-11.563-4.891a2.406 2.406 0 0 1 2.403 2.403 2.406 2.406 0 0 1 -2.403 2.403 2.406 2.406 0 0 1 -2.404-2.403 2.407 2.407 0 0 1 2.404-2.403zm-7.85 25.595c0-5.434 4.421-9.855 9.854-9.855s9.854 4.421 9.854 9.855-4.42 9.854-9.854 9.854c-5.433-.003-9.854-4.421-9.854-9.854zm25 81.77c-1.98 5.098-5.596 10.242-9.21 10.242-.448 0-.88-.078-1.287-.236-3.77-1.466-3.354-8.387-.995-14.466 1.979-5.098 5.596-10.242 9.21-10.242.447 0 .881.081 1.287.237 3.77 1.465 3.354 8.386.994 14.465z" fill="#15a1d4"/><path d="m264.972 86.705a11.51 11.51 0 1 0 23.02 0 11.51 11.51 0 1 0 -23.02 0m16.907-17.191a5.306 5.306 0 1 0 10.611 0 5.306 5.306 0 1 0 -10.611 0m-12.199-8.128a4.123 4.123 0 1 0 8.246 0 4.123 4.123 0 1 0 -8.246 0m-78.471 208.654a66.114 66.114 0 1 0 132.229 0 66.114 66.114 0 1 0 -132.23 0" fill="#fff"/><path d="m303.468 221.827c-12.878-12.878-30-19.97-48.212-19.97s-35.335 7.092-48.213 19.97c-12.877 12.878-19.97 30.001-19.97 48.213s7.093 35.334 19.97 48.212c12.878 12.878 30 19.97 48.213 19.97s35.334-7.092 48.212-19.97c12.877-12.878 19.97-30 19.97-48.212s-7.092-35.335-19.97-48.213zm-46.527 3.183 19.92-5.816 19.962 14.555.622 20.676-19.715 8.675-20.789-15.104zm-25.712 41.138 7.833 24.105-12.927 13.687-20.026-9.495-5.371-20.69 11.023-16.173zm-18.203-11.457.643-21.384 19.909-14.134 20.207 5.9v22.768l-21.245 15.435zm27.374 38.742h30.017l.188-.58 12.374 13.103-10.236 16.33h-34.762l-9.906-15.803zm44.761 10.236-13.444-14.236 7.673-23.615 19.188-8.443 11.393 16.717-5.712 20.522zm23.111-69.014-10.214-3.912-20.081-14.643-6.18-7.642c15.094 4.057 27.992 13.529 36.475 26.197zm-69.557-26.198-6.068 7.505-21.513 15.273-8.884 3.403c8.483-12.66 21.377-22.124 36.465-26.181zm-47.1 57.694 6.469 9.945 5.298 20.407-.465 9.911a63.4 63.4 0 0 1 -11.302-40.263zm36.533 61.593 11.812-2.301h30.805l11.661 2.272a63.382 63.382 0 0 1 -27.17 6.088 63.377 63.377 0 0 1 -27.108-6.059zm79.646-21.617-.5-10.648 5.616-20.175 5.984-9.198a63.399 63.399 0 0 1 -11.1 40.02z" fill="#292929"/></svg>